<?xml version="1.0" standalone="no"?>
<!DOCTYPE svg PUBLIC "-//W3C//DTD SVG 20010904//EN"
 "http://www.w3.org/TR/2001/REC-SVG-20010904/DTD/svg10.dtd">
<svg version="1.0" xmlns="http://www.w3.org/2000/svg"
 width="304.000000pt" height="211.000000pt" viewBox="0 0 304.000000 211.000000"
 preserveAspectRatio="xMidYMid meet">

<g transform="translate(0.000000,211.000000) scale(0.100000,-0.100000)"
fill="#000000" stroke="none">
<path d="M0 1055 l0 -1055 1520 0 1520 0 0 1055 0 1055 -1520 0 -1520 0 0
-1055z m832 1008 c9 -10 27 -40 42 -68 48 -94 34 -89 195 -60 160 30 169 28
202 -38 42 -82 53 -92 120 -106 64 -13 78 -8 79 26 0 7 17 23 38 36 36 23 41
24 297 23 l260 -1 3 -32 c2 -20 9 -33 17 -33 8 0 53 25 101 56 48 31 123 70
168 87 125 45 287 88 329 86 24 -1 6 -6 -118 -33 -113 -24 -293 -97 -377 -154
-100 -68 -138 -68 -138 -1 0 19 -8 19 -257 13 -286 -7 -299 -10 -316 -73 -7
-27 -12 -32 -30 -28 -12 3 -47 11 -78 18 -56 12 -56 13 -95 86 -39 72 -39 73
-79 73 -22 -1 -94 -11 -161 -23 l-120 -23 -34 67 c-19 37 -42 78 -51 91 l-18
23 -28 -26 c-25 -23 -39 -27 -118 -32 -96 -6 -258 -51 -382 -108 l-63 -28 0
-58 c0 -34 -9 -86 -21 -123 l-22 -63 44 -38 c36 -30 59 -41 126 -55 l81 -17
-107 -83 c-140 -109 -143 -113 -149 -180 -4 -52 -7 -56 -43 -75 -22 -11 -39
-21 -39 -24 0 -2 29 -21 65 -42 63 -36 65 -38 65 -78 0 -22 -7 -68 -16 -100
-8 -33 -18 -91 -21 -130 -3 -38 -18 -126 -33 -195 -28 -126 -48 -356 -30 -345
17 11 211 336 249 418 l38 83 91 42 c50 23 112 58 138 78 l47 36 -7 -43 c-3
-24 -11 -95 -16 -156 -7 -81 -20 -143 -45 -220 -19 -59 -32 -109 -30 -111 2
-3 16 3 30 12 14 9 25 14 25 11 0 -19 53 -252 59 -258 4 -4 22 9 41 28 47 49
79 47 119 -7 17 -22 32 -46 34 -51 2 -6 32 7 68 28 35 21 67 40 71 42 4 2 6
-10 6 -27 -1 -17 1 -32 4 -35 2 -2 21 11 41 30 l36 34 7 -34 c8 -46 18 -51 39
-19 10 16 20 22 24 16 4 -7 42 -2 116 19 61 16 113 29 116 29 8 0 -10 -103
-21 -114 -4 -4 -4 13 2 39 5 25 7 49 4 52 -3 3 -53 -6 -112 -21 -59 -15 -109
-24 -112 -21 -3 2 -12 -4 -19 -15 -17 -24 -30 -18 -44 17 l-9 25 -35 -26 c-39
-30 -55 -27 -55 9 0 24 0 24 -57 -11 -31 -19 -60 -34 -63 -34 -4 0 -22 22 -41
50 -21 30 -41 50 -53 50 -10 0 -39 -16 -63 -36 -29 -24 -47 -33 -52 -26 -4 6
-19 63 -35 127 -24 98 -31 115 -45 110 -9 -4 -22 -9 -28 -12 -20 -8 -16 25 17
133 21 67 34 137 40 219 6 66 12 126 15 133 6 17 0 15 -43 -12 -20 -12 -72
-39 -115 -59 l-78 -36 -34 -76 c-46 -101 -254 -427 -269 -422 -21 7 -10 238
17 362 14 61 28 153 32 205 4 52 11 101 17 107 6 7 12 41 15 75 l4 63 -65 38
c-36 21 -66 44 -66 52 0 8 17 23 39 34 35 18 39 24 45 72 4 29 11 60 16 69 5
10 54 52 110 94 55 43 100 79 100 81 0 1 -31 10 -69 20 -56 14 -76 24 -111 60
l-42 43 26 71 c15 41 26 94 26 121 0 63 16 76 164 128 134 48 243 72 324 72
49 0 62 4 82 25 28 30 32 30 52 8z m-96 -138 c23 -14 49 -22 57 -19 11 4 16
-4 19 -31 5 -42 3 -45 -84 -78 -64 -24 -84 -20 -48 11 12 10 8 11 -25 6 -93
-14 -215 -46 -225 -60 -7 -7 -16 -12 -20 -9 -4 2 -14 -13 -23 -35 l-15 -40 41
-11 c27 -7 79 -8 149 -4 59 4 149 4 200 0 l93 -7 -48 -42 c-26 -22 -47 -45
-48 -51 -1 -17 -121 -115 -194 -158 -60 -35 -336 -167 -350 -167 -3 0 8 18 23
40 15 22 99 96 191 167 l165 126 -36 13 c-20 7 -67 15 -104 19 -86 8 -168 30
-183 49 -10 12 -7 32 13 96 15 45 24 85 22 89 -11 17 333 119 355 105 4 -2 10
0 14 6 9 14 13 13 61 -15z m2006 -17 l18 -23 0 23 c0 12 3 22 8 22 9 0 76
-110 70 -115 -2 -2 -42 0 -88 5 -49 4 -90 4 -96 -1 -16 -13 -88 -179 -80 -186
3 -3 18 -1 32 6 15 6 28 10 31 8 7 -8 -121 -191 -178 -252 -30 -33 -77 -90
-104 -127 -27 -38 -50 -68 -51 -68 -2 0 8 30 22 68 51 134 83 238 90 292 l7
55 -23 -28 c-12 -15 -24 -26 -27 -24 -2 3 16 50 41 105 25 54 46 102 46 106 0
8 -142 6 -207 -3 -29 -4 -53 -7 -53 -6 0 6 116 78 167 103 52 27 137 48 258
66 54 7 99 -2 117 -26z m194 -63 c28 -62 50 -142 41 -151 -4 -4 -49 2 -101 14
-144 33 -172 30 -145 -20 6 -11 8 -35 4 -55 -8 -43 -119 -208 -197 -291 -32
-34 -58 -66 -58 -71 0 -4 28 -13 63 -19 71 -13 174 -43 262 -77 33 -13 76 -26
95 -30 69 -14 67 -21 -38 -125 -54 -53 -124 -116 -156 -140 l-57 -43 25 -26
c13 -14 28 -39 32 -56 4 -16 33 -66 64 -110 70 -97 184 -319 176 -340 -7 -18
-2 -20 -151 80 -84 57 -406 245 -419 245 -3 0 -20 -28 -37 -62 -18 -35 -61
-108 -96 -163 -35 -55 -84 -135 -109 -177 -24 -43 -49 -78 -54 -78 -6 0 -27
16 -49 35 -21 19 -46 35 -56 35 -19 0 -203 -48 -217 -56 -4 -3 -8 -1 -8 4 0
10 186 62 221 62 12 0 41 -16 64 -35 50 -40 42 -46 113 81 28 51 73 125 99
166 26 41 64 106 83 146 18 40 37 71 40 70 55 -26 288 -167 407 -245 85 -57
157 -103 159 -103 14 0 -129 256 -183 329 -35 47 -63 93 -63 103 0 10 -17 36
-37 59 -30 33 -34 43 -23 49 44 25 134 100 212 177 49 47 87 87 86 88 -5 2
-159 54 -213 71 -92 29 -200 54 -232 54 -59 0 -58 2 82 158 17 19 34 40 38 48
5 8 33 49 63 90 56 79 68 122 42 163 -6 10 -8 26 -4 36 5 15 14 16 60 11 29
-4 78 -14 107 -21 30 -8 64 -15 76 -15 l21 0 -17 58 c-10 32 -30 83 -45 113
-14 29 -19 45 -10 34 9 -11 27 -42 40 -70z m-1781 -12 c6 -17 7 -17 19 -1 10
14 15 10 39 -32 l27 -48 -74 5 -75 6 -35 -73 c-37 -78 -38 -97 -5 -79 12 6 22
9 24 7 6 -6 -82 -131 -132 -188 -27 -30 -66 -79 -87 -107 -21 -29 -39 -53 -41
-53 -2 0 10 35 27 78 27 70 68 211 68 235 0 6 -9 2 -20 -8 -27 -24 -26 -18 15
67 l35 73 -100 5 -100 5 83 47 c62 36 102 51 162 62 114 20 161 20 170 -1z
m785 -64 c-33 -26 -117 -64 -160 -72 -29 -6 -40 -16 -62 -56 -16 -27 -28 -52
-28 -56 0 -6 44 -2 125 11 l30 5 -37 -24 c-21 -13 -69 -39 -108 -58 -49 -23
-70 -39 -70 -52 0 -10 -5 -27 -11 -39 -6 -11 -9 -22 -6 -24 2 -2 66 8 142 24
120 25 134 26 114 11 -13 -10 -27 -19 -31 -19 -5 0 -7 -5 -5 -12 1 -7 -48 -29
-118 -53 -66 -23 -137 -49 -159 -58 -21 -9 -42 -17 -46 -17 -4 0 -1 28 6 63
45 199 64 295 64 324 0 31 -2 33 -35 33 l-35 0 23 38 24 37 184 5 c101 3 193
7 204 8 18 1 17 -1 -5 -19z m-670 -49 c36 -6 109 -24 163 -41 95 -31 97 -32
84 -53 -23 -35 -138 -123 -201 -155 -56 -27 -57 -29 -36 -41 35 -19 100 -81
94 -91 -2 -5 20 -45 51 -89 31 -44 54 -80 51 -80 -3 0 -62 32 -131 72 -79 45
-121 74 -111 78 11 4 4 17 -31 53 -25 27 -46 47 -48 45 -1 -2 -31 -63 -65
-136 -35 -73 -64 -131 -66 -129 -2 1 1 20 7 42 5 22 11 80 14 128 3 79 19 150
66 294 5 17 7 42 4 56 -5 20 -1 27 27 40 39 20 44 20 128 7z m1070 -30 c-19
-16 -42 -30 -51 -30 -9 0 -19 -3 -23 -7 -4 -5 -28 -12 -54 -18 -39 -9 -50 -16
-73 -55 -15 -25 -28 -49 -28 -53 -1 -5 31 -5 69 -1 39 3 70 4 70 0 0 -3 -44
-28 -98 -55 -93 -47 -98 -51 -109 -91 l-11 -42 47 7 c25 4 83 15 129 26 107
24 116 24 67 -6 -22 -14 -39 -28 -37 -32 2 -4 -45 -24 -105 -44 -59 -20 -131
-46 -159 -57 l-51 -21 13 70 c7 38 15 73 18 78 9 13 46 213 46 244 0 24 -3 27
-36 27 l-35 0 22 40 c26 46 16 44 264 47 l160 3 -35 -30z m-1540 -490 c11 0
-12 -29 -69 -83 -108 -104 -135 -124 -97 -74 l28 37 -25 0 c-25 0 -217 -36
-222 -42 -10 -11 -35 -85 -35 -104 0 -23 1 -23 40 -9 25 9 38 10 34 4 -4 -8 1
-9 17 -4 13 5 46 14 73 21 71 19 46 0 -86 -65 l-113 -56 -58 -115 c-32 -63
-61 -118 -66 -123 -4 -4 0 29 10 75 10 46 19 100 19 120 0 20 12 98 26 172 15
75 24 142 20 151 -3 8 -19 23 -36 34 -18 10 -28 21 -23 24 4 3 102 10 218 17
116 6 230 15 255 20 25 4 51 6 58 4 8 -2 22 -4 32 -4z m1674 -35 c87 -13 186
-39 251 -65 11 -5 29 -11 40 -15 32 -11 -113 -142 -212 -191 -93 -46 -92 -45
-75 -52 21 -7 117 -95 114 -104 -3 -10 36 -72 91 -146 45 -62 55 -65 -132 41
-82 47 -118 73 -108 76 13 5 4 19 -39 64 -55 56 -65 64 -63 50 4 -18 -118
-280 -126 -271 -2 2 1 28 6 58 6 30 11 93 13 140 3 79 33 209 71 310 11 30 11
39 -1 55 -13 17 -12 20 8 28 18 6 20 10 9 17 -11 6 -7 9 15 13 16 2 31 5 34 5
3 1 50 -5 104 -13z m-556 -7 c10 -10 15 -10 21 1 7 10 16 0 36 -39 l26 -52
-70 7 -70 7 -35 -70 c-36 -72 -37 -89 -5 -71 13 7 19 6 19 -2 0 -14 -119 -179
-129 -179 -4 0 -29 -29 -55 -65 -26 -36 -49 -65 -50 -65 -2 0 12 42 30 94 18
51 36 115 40 142 7 46 6 48 -11 34 -17 -14 -17 -13 -10 9 4 13 18 47 31 75 17
36 20 52 11 54 -6 1 -52 6 -102 10 l-89 7 84 42 c113 56 299 90 328 61z m-703
-53 c-17 -14 -15 -15 30 -10 l50 6 -33 -18 c-18 -11 -29 -23 -25 -28 4 -4 0
-5 -10 -2 -10 4 -16 3 -13 -2 3 -4 -29 -31 -72 -58 -126 -83 -162 -129 -162
-212 0 -22 3 -23 44 -18 47 7 116 36 116 49 0 4 6 8 13 8 8 0 22 9 33 21 19
21 19 21 -16 15 -60 -9 -146 -15 -132 -10 6 3 10 9 7 13 -4 8 235 114 242 107
7 -7 -36 -107 -67 -156 -37 -58 -84 -102 -140 -130 -33 -17 -46 -19 -82 -10
-24 5 -57 10 -75 10 -31 0 -31 1 -22 33 6 17 10 60 10 94 0 57 2 64 40 107 45
51 43 56 -7 25 -19 -11 -34 -18 -34 -14 0 8 56 56 83 71 15 8 16 13 6 16 -20
7 190 104 231 107 3 0 -4 -6 -15 -14z m-315 -77 c0 -18 -22 -71 -50 -123 -27
-51 -50 -105 -50 -121 0 -16 -21 -69 -45 -119 -25 -49 -43 -81 -39 -70 3 11 8
65 10 120 3 55 14 137 24 183 l18 83 -30 6 c-29 6 -30 7 -13 20 14 10 15 13 4
13 -30 1 22 21 81 32 33 5 60 15 60 20 0 6 6 5 15 -2 8 -7 15 -26 15 -42z
m1333 -16 c-18 -15 -62 -36 -98 -47 -60 -17 -67 -22 -90 -63 l-25 -45 72 6 73
6 -94 -48 c-84 -43 -95 -51 -107 -86 -7 -22 -12 -41 -10 -42 1 -2 54 8 116 22
62 14 116 25 119 25 3 -1 -14 -12 -39 -26 -25 -13 -35 -22 -22 -19 43 12 21
-4 -30 -21 -29 -9 -47 -19 -40 -21 17 -6 15 -23 -3 -23 -8 0 -15 5 -15 11 0
14 -28 8 -111 -24 l-65 -25 7 42 c4 22 17 84 28 136 12 52 23 117 26 144 l5
48 -36 -7 c-20 -3 -34 -3 -32 2 2 4 12 23 23 40 l20 32 155 4 c85 1 166 3 180
4 25 2 25 2 -7 -25z m-827 5 c3 -3 13 -3 21 0 19 8 13 -17 -28 -106 -16 -35
-29 -65 -29 -66 0 -5 102 5 110 10 13 8 33 94 27 121 -4 22 -1 25 15 21 16 -5
17 -3 6 11 -11 13 -11 15 2 7 8 -4 26 -16 40 -26 18 -12 31 -14 42 -8 16 9 16
7 3 -18 -8 -16 -15 -33 -15 -39 0 -6 -7 -17 -15 -24 -22 -18 -88 -138 -90
-165 -2 -12 -11 -37 -20 -56 -21 -41 -72 -103 -61 -75 15 42 48 187 44 192 -3
3 -31 -7 -61 -22 -50 -25 -58 -33 -82 -88 -27 -64 -71 -130 -61 -91 13 48 35
189 30 197 -3 5 6 48 20 98 14 49 26 98 26 109 0 10 6 21 13 24 15 6 55 2 63
-6z m-434 -496 c29 -2 48 -31 48 -72 0 -27 -4 -38 -11 -33 -7 4 -9 0 -5 -14 4
-11 3 -23 -1 -25 -4 -3 -9 13 -11 35 -1 22 -7 49 -13 59 -10 20 -39 26 -39 9
0 -5 -9 -10 -19 -10 -12 0 -29 -17 -46 -46 -26 -44 -48 -57 -26 -15 10 17 9
20 -4 15 -8 -4 -15 -11 -15 -17 0 -6 -2 -8 -5 -5 -6 6 30 95 46 114 8 10 33
11 101 5z m151 -4 c50 -21 61 -40 47 -81 -8 -24 -16 -33 -26 -29 -7 3 -12 9
-9 13 6 10 -5 40 -14 40 -5 0 -13 -18 -20 -40 -6 -21 -16 -42 -22 -46 -7 -4
-9 1 -4 15 4 12 2 21 -4 21 -6 0 -11 5 -11 11 0 5 4 8 9 5 4 -3 8 7 8 22 0 33
6 82 11 82 1 0 17 -6 35 -13z m232 -19 c-10 -45 -47 -128 -57 -128 -7 0 -13
32 -9 53 1 5 -3 6 -8 3 -5 -3 -11 1 -14 8 -3 8 -2 16 3 18 5 2 12 16 16 32 5
21 4 27 -5 22 -6 -4 -11 -5 -11 -1 0 9 42 24 68 24 21 1 23 -2 17 -31z m364
-3 c21 -21 22 -25 10 -50 -8 -15 -18 -27 -23 -26 -5 2 -13 -3 -17 -11 -6 -9
-9 -1 -10 22 -1 34 -1 35 -12 10 -7 -14 -18 -26 -26 -28 -11 -2 -13 7 -7 44 3
26 6 53 6 61 0 20 49 6 79 -22z m316 26 c-6 -5 -32 -18 -59 -28 -39 -14 -51
-24 -57 -46 -7 -27 -6 -28 17 -23 37 10 29 -1 -18 -25 -24 -12 -47 -27 -51
-33 -5 -6 -6 6 -3 27 4 30 2 36 -7 28 -10 -7 -12 0 -9 30 3 31 1 39 -12 39
-19 0 -21 11 -4 28 8 8 48 12 112 12 62 0 96 -4 91 -9z m-447 -50 c-5 -14 -15
-33 -22 -41 -7 -8 -17 -24 -21 -35 -8 -19 -9 -19 -12 3 -3 12 -9 19 -15 16 -7
-5 -9 4 -6 25 3 23 1 31 -11 31 -14 0 -14 1 -1 10 8 5 11 10 5 11 -5 0 10 6
35 13 51 14 63 6 48 -33z m192 -41 c-18 -33 -23 -16 -8 26 10 30 14 33 16 16
2 -11 -2 -31 -8 -42z m-554 6 c-4 -19 -11 -38 -16 -41 -6 -3 -7 1 -4 9 3 9 1
16 -4 16 -7 0 -4 13 6 29 21 37 26 32 18 -13z m538 -61 c-4 -8 -13 -15 -22
-15 -13 0 -12 3 4 15 24 18 25 18 18 0z m-807 -55 c-14 -11 -28 -20 -32 -20
-10 0 38 39 49 40 5 0 -3 -9 -17 -20z m726 -145 c6 -12 17 -15 35 -11 26 5 26
5 4 -6 -18 -9 -26 -8 -40 5 -10 9 -32 20 -50 23 -26 5 -38 0 -80 -35 -26 -22
-55 -41 -63 -41 -9 1 -7 5 6 12 11 6 37 27 59 46 34 30 43 34 79 29 23 -3 44
-13 50 -22z m-193 -36 c0 -5 -4 -8 -8 -5 -5 3 -22 -8 -37 -24 -16 -17 -36 -30
-44 -30 -9 0 -3 8 14 18 17 11 36 26 44 35 15 19 31 22 31 6z"/>
<path d="M1206 1555 c-16 -31 -26 -58 -22 -62 3 -3 37 6 76 22 118 47 130 87
28 93 l-53 3 -29 -56z"/>
<path d="M2413 981 c-18 -33 -33 -65 -33 -71 0 -14 27 -7 90 23 25 12 51 22
59 24 8 1 23 11 35 22 33 33 13 52 -59 57 l-60 4 -32 -59z"/>
</g>
</svg>
